<svg width="91" height="17" viewBox="0 0 91 17" fill="none" xmlns="http://www.w3.org/2000/svg">
<path d="M4.944 13.096C4.272 13.096 3.66933 13.016 3.136 12.856C2.60267 12.696 2.144 12.4027 1.76 11.976C1.376 11.5493 1.08267 10.936 0.88 10.136C0.677333 9.336 0.576 8.296 0.576 7.016C0.576 5.77867 0.682667 4.76533 0.896 3.976C1.10933 3.18667 1.408 2.57867 1.792 2.152C2.18667 1.71467 2.65067 1.416 3.184 1.256C3.71733 1.08533 4.304 0.999999 4.944 0.999999C5.60533 0.999999 6.18667 1.03733 6.688 1.112C7.2 1.176 7.632 1.256 7.984 1.352C8.34667 1.448 8.63467 1.544 8.848 1.64V4.056C8.64533 4.01333 8.384 3.97067 8.064 3.928C7.744 3.88533 7.376 3.85333 6.96 3.832C6.55467 3.8 6.112 3.784 5.632 3.784C5.26933 3.784 4.96 3.82133 4.704 3.896C4.45867 3.97067 4.26133 4.12 4.112 4.344C3.96267 4.568 3.85067 4.89867 3.776 5.336C3.712 5.76267 3.68 6.33333 3.68 7.048C3.68 7.688 3.70667 8.22133 3.76 8.648C3.81333 9.07467 3.90933 9.41067 4.048 9.656C4.18667 9.89067 4.384 10.0613 4.64 10.168C4.90667 10.264 5.248 10.312 5.664 10.312C6.47467 10.312 7.13067 10.3013 7.632 10.28C8.144 10.248 8.54933 10.2107 8.848 10.168V12.584C8.58133 12.6907 8.26667 12.7813 7.904 12.856C7.552 12.9307 7.136 12.9893 6.656 13.032C6.176 13.0747 5.60533 13.096 4.944 13.096ZM10.1259 13V4.376H12.5419L13.2299 5.576C13.4859 5.224 13.7792 4.91467 14.1099 4.648C14.4512 4.38133 14.8619 4.248 15.3419 4.248C15.4272 4.248 15.5285 4.25333 15.6459 4.264C15.7632 4.27467 15.8752 4.296 15.9819 4.328V7.512C15.8005 7.49067 15.6139 7.47467 15.4219 7.464C15.2405 7.45333 15.0752 7.448 14.9259 7.448C14.6699 7.448 14.4352 7.47467 14.2219 7.528C14.0085 7.57067 13.8165 7.64 13.6459 7.736C13.4859 7.832 13.3472 7.96 13.2299 8.12V13H10.1259ZM19.9449 16.792L20.7769 13C20.1582 13 19.6409 12.8933 19.2249 12.68C18.8195 12.456 18.4995 12.1573 18.2649 11.784C18.0302 11.4107 17.8595 10.984 17.7529 10.504L16.4249 4.376H19.6409L20.6169 9.88C20.6382 10.008 20.6702 10.1147 20.7129 10.2C20.7662 10.2747 20.8249 10.3333 20.8889 10.376C20.9635 10.4187 21.0329 10.4507 21.0969 10.472C21.1715 10.4933 21.2409 10.504 21.3049 10.504L22.4089 4.376H25.5609L23.3689 15.208L22.5689 16.792H19.9449ZM26.3915 16.792V4.376H29.0155L29.4955 5.16C29.7088 4.97867 29.9168 4.81867 30.1195 4.68C30.3222 4.54133 30.5408 4.43467 30.7755 4.36C31.0208 4.27467 31.2982 4.232 31.6075 4.232C32.1195 4.232 32.5675 4.32267 32.9515 4.504C33.3355 4.68533 33.6502 4.96267 33.8955 5.336C34.1515 5.69867 34.3382 6.16267 34.4555 6.728C34.5835 7.29333 34.6475 7.95467 34.6475 8.712C34.6475 9.608 34.5622 10.3867 34.3915 11.048C34.2315 11.7093 33.9328 12.2213 33.4955 12.584C33.0582 12.9467 32.4288 13.128 31.6075 13.128C31.2448 13.128 30.8768 13.096 30.5035 13.032C30.1302 12.968 29.7942 12.8667 29.4955 12.728V16.792H26.3915ZM30.5515 10.584C30.7008 10.584 30.8502 10.5413 30.9995 10.456C31.1595 10.36 31.2875 10.1787 31.3835 9.912C31.4902 9.64533 31.5435 9.24533 31.5435 8.712C31.5435 8.17867 31.5062 7.768 31.4315 7.48C31.3568 7.18133 31.2448 6.97867 31.0955 6.872C30.9568 6.76533 30.7808 6.712 30.5675 6.712C30.3435 6.712 30.1355 6.74933 29.9435 6.824C29.7515 6.888 29.6022 6.95733 29.4955 7.032V10.344C29.6022 10.4187 29.7515 10.4773 29.9435 10.52C30.1462 10.5627 30.3488 10.584 30.5515 10.584ZM39.397 13C38.661 13 38.069 12.904 37.621 12.712C37.1837 12.5093 36.869 12.1733 36.677 11.704C36.4957 11.224 36.4157 10.5733 36.437 9.752L36.533 6.84H35.205V4.856L36.661 4.376L37.045 1.96H39.509V4.376H41.253V6.84H39.509V9.736C39.509 9.87467 39.5197 9.99733 39.541 10.104C39.5623 10.2 39.5943 10.2853 39.637 10.36C39.6903 10.424 39.7543 10.4773 39.829 10.52C39.9037 10.552 39.989 10.5733 40.085 10.584L41.189 10.696V13H39.397ZM46.1701 13.08C45.4021 13.08 44.7515 13 44.2181 12.84C43.6955 12.68 43.2741 12.424 42.9541 12.072C42.6341 11.72 42.4048 11.2667 42.2661 10.712C42.1275 10.1467 42.0581 9.464 42.0581 8.664C42.0581 7.8 42.1275 7.08533 42.2661 6.52C42.4155 5.944 42.6501 5.49067 42.9701 5.16C43.2901 4.81867 43.7115 4.57867 44.2341 4.44C44.7675 4.30133 45.4128 4.232 46.1701 4.232C46.9381 4.232 47.5835 4.30667 48.1061 4.456C48.6395 4.60533 49.0608 4.85067 49.3701 5.192C49.6901 5.52267 49.9195 5.976 50.0581 6.552C50.2075 7.11733 50.2821 7.82133 50.2821 8.664C50.2821 9.496 50.2128 10.1947 50.0741 10.76C49.9461 11.3253 49.7221 11.7787 49.4021 12.12C49.0928 12.4613 48.6715 12.7067 48.1381 12.856C47.6155 13.0053 46.9595 13.08 46.1701 13.08ZM46.1701 10.616C46.3728 10.616 46.5381 10.6 46.6661 10.568C46.7941 10.5253 46.8955 10.44 46.9701 10.312C47.0448 10.184 47.0981 9.98667 47.1301 9.72C47.1621 9.45333 47.1781 9.096 47.1781 8.648C47.1781 8.2 47.1621 7.848 47.1301 7.592C47.0981 7.32533 47.0448 7.128 46.9701 7C46.8955 6.872 46.7941 6.792 46.6661 6.76C46.5381 6.71733 46.3728 6.696 46.1701 6.696C45.9675 6.696 45.8021 6.71733 45.6741 6.76C45.5461 6.792 45.4448 6.872 45.3701 7C45.2955 7.128 45.2421 7.32533 45.2101 7.592C45.1781 7.848 45.1621 8.2 45.1621 8.648C45.1621 9.096 45.1781 9.45333 45.2101 9.72C45.2421 9.98667 45.2955 10.184 45.3701 10.312C45.4448 10.44 45.5461 10.5253 45.6741 10.568C45.8021 10.6 45.9675 10.616 46.1701 10.616Z" fill="#0075FF"/>
<path d="M54.7496 13L51.0376 1.16H53.4856L56.2536 10.44L59.0216 1.16H61.4536L57.7416 13H54.7496ZM63.9704 13.096C63.3197 13.096 62.7917 12.904 62.3864 12.52C61.981 12.136 61.7784 11.6027 61.7784 10.92V10.152C61.7784 9.50133 62.0077 8.968 62.4664 8.552C62.925 8.12533 63.6397 7.912 64.6104 7.912H66.8024V7.32C66.8024 7.05333 66.7544 6.83467 66.6584 6.664C66.5624 6.48267 66.381 6.35467 66.1144 6.28C65.8584 6.19467 65.4637 6.152 64.9304 6.152H62.3544V4.776C62.7704 4.648 63.2504 4.536 63.7944 4.44C64.349 4.344 65.0157 4.296 65.7944 4.296C66.509 4.296 67.117 4.38133 67.6184 4.552C68.1304 4.72267 68.5144 5.016 68.7704 5.432C69.037 5.848 69.1704 6.424 69.1704 7.16V13H67.2984L66.9144 12.088C66.8397 12.1733 66.7117 12.2693 66.5304 12.376C66.349 12.4827 66.125 12.5947 65.8584 12.712C65.6024 12.8187 65.309 12.9093 64.9784 12.984C64.6584 13.0587 64.3224 13.096 63.9704 13.096ZM65.1704 11.448C65.277 11.448 65.3944 11.4373 65.5224 11.416C65.661 11.384 65.7997 11.352 65.9384 11.32C66.0877 11.2773 66.221 11.24 66.3384 11.208C66.4664 11.1653 66.5677 11.128 66.6424 11.096C66.7277 11.064 66.781 11.0427 66.8024 11.032V9.032L65.3624 9.128C64.9464 9.16 64.637 9.26667 64.4344 9.448C64.2424 9.62933 64.1464 9.87467 64.1464 10.184V10.536C64.1464 10.7493 64.189 10.9253 64.2744 11.064C64.3704 11.2027 64.493 11.304 64.6424 11.368C64.8024 11.4213 64.9784 11.448 65.1704 11.448ZM73.3753 13.096C72.6073 13.096 72.0046 12.872 71.5673 12.424C71.1299 11.9653 70.9113 11.32 70.9113 10.488V4.408H73.2793V9.784C73.2793 10.264 73.3913 10.5893 73.6153 10.76C73.8499 10.92 74.1539 11 74.5273 11C74.8259 11 75.1299 10.9467 75.4393 10.84C75.7593 10.7227 76.0419 10.568 76.2873 10.376V4.408H78.6713V13H76.7033L76.2873 12.12C75.9033 12.376 75.4606 12.6053 74.9593 12.808C74.4579 13 73.9299 13.096 73.3753 13.096ZM83.1469 13.032C82.5389 13.032 82.0322 12.936 81.6269 12.744C81.2322 12.5413 80.9389 12.2373 80.7469 11.832C80.5549 11.416 80.4589 10.8827 80.4589 10.232V0.792H82.8269V9.88C82.8269 10.2 82.8589 10.456 82.9229 10.648C82.9869 10.8293 83.0829 10.9627 83.2109 11.048C83.3495 11.1333 83.5202 11.192 83.7229 11.224L84.3789 11.32V13.032H83.1469ZM88.7385 13C88.0772 13 87.5385 12.904 87.1225 12.712C86.7172 12.52 86.4238 12.2 86.2425 11.752C86.0612 11.304 85.9812 10.7013 86.0025 9.944L86.0825 6.312H84.7385V4.792L86.1625 4.408L86.4825 2.008H88.3545V4.408H90.3705V6.312H88.3545V9.928C88.3545 10.1627 88.3758 10.3547 88.4185 10.504C88.4612 10.6533 88.5198 10.776 88.5945 10.872C88.6798 10.9573 88.7758 11.0213 88.8825 11.064C88.9892 11.1067 89.0958 11.1333 89.2025 11.144L90.2905 11.24V13H88.7385Z" fill="black"/>
</svg>
